<mxfile host="app.diagrams.net" agent="Mozilla/5.0 (Windows NT 10.0; Win64; x64) AppleWebKit/537.36 (KHTML, like Gecko) Chrome/132.0.0.0 Safari/537.36" version="26.0.4">
  <diagram name="Page-1" id="uCtxBFyetkFbAPX629IC">
    <mxGraphModel dx="1985" dy="1115" grid="1" gridSize="10" guides="1" tooltips="1" connect="1" arrows="1" fold="1" page="1" pageScale="1" pageWidth="850" pageHeight="1100" math="0" shadow="0">
      <root>
        <mxCell id="0" />
        <mxCell id="1" parent="0" />
        <mxCell id="KPOi8cj2wzjZKRKIcYXq-18" value="Select Logout" style="edgeStyle=orthogonalEdgeStyle;rounded=0;orthogonalLoop=1;jettySize=auto;html=1;exitX=0.5;exitY=0;exitDx=0;exitDy=0;entryX=0.5;entryY=1;entryDx=0;entryDy=0;" edge="1" parent="1" source="KPOi8cj2wzjZKRKIcYXq-4" target="KPOi8cj2wzjZKRKIcYXq-5">
          <mxGeometry relative="1" as="geometry" />
        </mxCell>
        <mxCell id="KPOi8cj2wzjZKRKIcYXq-20" style="edgeStyle=orthogonalEdgeStyle;rounded=0;orthogonalLoop=1;jettySize=auto;html=1;exitX=1;exitY=0;exitDx=0;exitDy=0;entryX=0;entryY=0.5;entryDx=0;entryDy=0;" edge="1" parent="1" source="KPOi8cj2wzjZKRKIcYXq-4" target="KPOi8cj2wzjZKRKIcYXq-6">
          <mxGeometry relative="1" as="geometry">
            <Array as="points">
              <mxPoint x="301" y="150" />
              <mxPoint x="335" y="150" />
              <mxPoint x="335" y="100" />
            </Array>
          </mxGeometry>
        </mxCell>
        <mxCell id="KPOi8cj2wzjZKRKIcYXq-21" value="Select Change Password" style="edgeLabel;html=1;align=center;verticalAlign=middle;resizable=0;points=[];" vertex="1" connectable="0" parent="KPOi8cj2wzjZKRKIcYXq-20">
          <mxGeometry x="0.0286" y="2" relative="1" as="geometry">
            <mxPoint as="offset" />
          </mxGeometry>
        </mxCell>
        <mxCell id="KPOi8cj2wzjZKRKIcYXq-22" value="Select Users List(only admins)" style="edgeStyle=orthogonalEdgeStyle;rounded=0;orthogonalLoop=1;jettySize=auto;html=1;exitX=1;exitY=0.5;exitDx=0;exitDy=0;entryX=0;entryY=0.5;entryDx=0;entryDy=0;" edge="1" parent="1" source="KPOi8cj2wzjZKRKIcYXq-4" target="KPOi8cj2wzjZKRKIcYXq-7">
          <mxGeometry relative="1" as="geometry" />
        </mxCell>
        <mxCell id="KPOi8cj2wzjZKRKIcYXq-23" style="edgeStyle=orthogonalEdgeStyle;rounded=0;orthogonalLoop=1;jettySize=auto;html=1;exitX=1;exitY=1;exitDx=0;exitDy=0;entryX=0;entryY=0.5;entryDx=0;entryDy=0;" edge="1" parent="1" source="KPOi8cj2wzjZKRKIcYXq-4" target="KPOi8cj2wzjZKRKIcYXq-8">
          <mxGeometry relative="1" as="geometry" />
        </mxCell>
        <mxCell id="KPOi8cj2wzjZKRKIcYXq-24" value="Select Statistics (only for manager and admin)" style="edgeLabel;html=1;align=center;verticalAlign=middle;resizable=0;points=[];" vertex="1" connectable="0" parent="KPOi8cj2wzjZKRKIcYXq-23">
          <mxGeometry x="0.0808" y="3" relative="1" as="geometry">
            <mxPoint y="-1" as="offset" />
          </mxGeometry>
        </mxCell>
        <mxCell id="KPOi8cj2wzjZKRKIcYXq-4" value="View" style="ellipse;whiteSpace=wrap;html=1;aspect=fixed;" vertex="1" parent="1">
          <mxGeometry x="250" y="150" width="50" height="50" as="geometry" />
        </mxCell>
        <mxCell id="KPOi8cj2wzjZKRKIcYXq-5" value="Logout" style="ellipse;whiteSpace=wrap;html=1;aspect=fixed;" vertex="1" parent="1">
          <mxGeometry x="255" y="40" width="50" height="50" as="geometry" />
        </mxCell>
        <mxCell id="KPOi8cj2wzjZKRKIcYXq-6" value="Change Password&lt;span style=&quot;color: rgba(0, 0, 0, 0); font-family: monospace; font-size: 0px; text-align: start; text-wrap-mode: nowrap;&quot;&gt;%3CmxGraphModel%3E%3Croot%3E%3CmxCell%20id%3D%220%22%2F%3E%3CmxCell%20id%3D%221%22%20parent%3D%220%22%2F%3E%3CmxCell%20id%3D%222%22%20value%3D%22%22%20style%3D%22ellipse%3BwhiteSpace%3Dwrap%3Bhtml%3D1%3Baspect%3Dfixed%3B%22%20vertex%3D%221%22%20parent%3D%221%22%3E%3CmxGeometry%20x%3D%22250%22%20y%3D%22110%22%20width%3D%2260%22%20height%3D%2260%22%20as%3D%22geometry%22%2F%3E%3C%2FmxCell%3E%3C%2Froot%3E%3C%2FmxGraphModel%3E&lt;/span&gt;" style="ellipse;whiteSpace=wrap;html=1;aspect=fixed;" vertex="1" parent="1">
          <mxGeometry x="395" y="35" width="60" height="60" as="geometry" />
        </mxCell>
        <mxCell id="KPOi8cj2wzjZKRKIcYXq-7" value="Users" style="ellipse;whiteSpace=wrap;html=1;aspect=fixed;" vertex="1" parent="1">
          <mxGeometry x="480" y="90" width="60" height="60" as="geometry" />
        </mxCell>
        <mxCell id="KPOi8cj2wzjZKRKIcYXq-25" style="edgeStyle=orthogonalEdgeStyle;rounded=0;orthogonalLoop=1;jettySize=auto;html=1;exitX=1;exitY=0;exitDx=0;exitDy=0;entryX=0;entryY=0;entryDx=0;entryDy=0;" edge="1" parent="1" source="KPOi8cj2wzjZKRKIcYXq-8" target="KPOi8cj2wzjZKRKIcYXq-10">
          <mxGeometry relative="1" as="geometry" />
        </mxCell>
        <mxCell id="KPOi8cj2wzjZKRKIcYXq-33" value="Select Books Categories" style="edgeLabel;html=1;align=center;verticalAlign=middle;resizable=0;points=[];" vertex="1" connectable="0" parent="KPOi8cj2wzjZKRKIcYXq-25">
          <mxGeometry x="-0.0235" relative="1" as="geometry">
            <mxPoint as="offset" />
          </mxGeometry>
        </mxCell>
        <mxCell id="KPOi8cj2wzjZKRKIcYXq-26" style="edgeStyle=orthogonalEdgeStyle;rounded=0;orthogonalLoop=1;jettySize=auto;html=1;exitX=1;exitY=1;exitDx=0;exitDy=0;entryX=0;entryY=0.5;entryDx=0;entryDy=0;" edge="1" parent="1" source="KPOi8cj2wzjZKRKIcYXq-8" target="KPOi8cj2wzjZKRKIcYXq-9">
          <mxGeometry relative="1" as="geometry" />
        </mxCell>
        <mxCell id="KPOi8cj2wzjZKRKIcYXq-34" value="Select Best Sellers Categories" style="edgeLabel;html=1;align=center;verticalAlign=middle;resizable=0;points=[];" vertex="1" connectable="0" parent="KPOi8cj2wzjZKRKIcYXq-26">
          <mxGeometry x="0.116" y="2" relative="1" as="geometry">
            <mxPoint as="offset" />
          </mxGeometry>
        </mxCell>
        <mxCell id="KPOi8cj2wzjZKRKIcYXq-8" value="Statistics&lt;span style=&quot;color: rgba(0, 0, 0, 0); font-family: monospace; font-size: 0px; text-align: start; text-wrap-mode: nowrap;&quot;&gt;%3CmxGraphModel%3E%3Croot%3E%3CmxCell%20id%3D%220%22%2F%3E%3CmxCell%20id%3D%221%22%20parent%3D%220%22%2F%3E%3CmxCell%20id%3D%222%22%20value%3D%22%22%20style%3D%22ellipse%3BwhiteSpace%3Dwrap%3Bhtml%3D1%3Baspect%3Dfixed%3B%22%20vertex%3D%221%22%20parent%3D%221%22%3E%3CmxGeometry%20x%3D%22250%22%20y%3D%22110%22%20width%3D%2260%22%20height%3D%2260%22%20as%3D%22geometry%22%2F%3E%3C%2FmxCell%3E%3C%2Froot%3E%3C%2FmxGraphModel%3E&lt;/span&gt;&lt;span style=&quot;color: rgba(0, 0, 0, 0); font-family: monospace; font-size: 0px; text-align: start; text-wrap-mode: nowrap;&quot;&gt;%3CmxGraphModel%3E%3Croot%3E%3CmxCell%20id%3D%220%22%2F%3E%3CmxCell%20id%3D%221%22%20parent%3D%220%22%2F%3E%3CmxCell%20id%3D%222%22%20value%3D%22%22%20style%3D%22ellipse%3BwhiteSpace%3Dwrap%3Bhtml%3D1%3Baspect%3Dfixed%3B%22%20vertex%3D%221%22%20parent%3D%221%22%3E%3CmxGeometry%20x%3D%22250%22%20y%3D%22110%22%20width%3D%2260%22%20height%3D%2260%22%20as%3D%22geometry%22%2F%3E%3C%2FmxCell%3E%3C%2Froot%3E%3C%2FmxGraphModel%3E&lt;/span&gt;" style="ellipse;whiteSpace=wrap;html=1;aspect=fixed;" vertex="1" parent="1">
          <mxGeometry x="515" y="260" width="60" height="60" as="geometry" />
        </mxCell>
        <mxCell id="KPOi8cj2wzjZKRKIcYXq-9" value="Best Sellers Categories&lt;span style=&quot;color: rgba(0, 0, 0, 0); font-family: monospace; font-size: 0px; text-align: start; text-wrap-mode: nowrap;&quot;&gt;%3CmxGraphModel%3E%3Croot%3E%3CmxCell%20id%3D%220%22%2F%3E%3CmxCell%20id%3D%221%22%20parent%3D%220%22%2F%3E%3CmxCell%20id%3D%222%22%20value%3D%22%22%20style%3D%22ellipse%3BwhiteSpace%3Dwrap%3Bhtml%3D1%3Baspect%3Dfixed%3B%22%20vertex%3D%221%22%20parent%3D%221%22%3E%3CmxGeometry%20x%3D%22250%22%20y%3D%22110%22%20width%3D%2260%22%20height%3D%2260%22%20as%3D%22geometry%22%2F%3E%3C%2FmxCell%3E%3C%2Froot%3E%3C%2FmxGraphModel%3E&lt;/span&gt;" style="ellipse;whiteSpace=wrap;html=1;aspect=fixed;" vertex="1" parent="1">
          <mxGeometry x="750" y="320" width="70" height="70" as="geometry" />
        </mxCell>
        <mxCell id="KPOi8cj2wzjZKRKIcYXq-10" value="Books Categories" style="ellipse;whiteSpace=wrap;html=1;aspect=fixed;" vertex="1" parent="1">
          <mxGeometry x="750" y="220" width="70" height="70" as="geometry" />
        </mxCell>
        <mxCell id="KPOi8cj2wzjZKRKIcYXq-29" style="edgeStyle=orthogonalEdgeStyle;rounded=0;orthogonalLoop=1;jettySize=auto;html=1;exitX=1;exitY=0;exitDx=0;exitDy=0;entryX=0;entryY=0.5;entryDx=0;entryDy=0;" edge="1" parent="1" source="KPOi8cj2wzjZKRKIcYXq-11" target="KPOi8cj2wzjZKRKIcYXq-12">
          <mxGeometry relative="1" as="geometry" />
        </mxCell>
        <mxCell id="KPOi8cj2wzjZKRKIcYXq-36" value="Select Books List" style="edgeLabel;html=1;align=center;verticalAlign=middle;resizable=0;points=[];" vertex="1" connectable="0" parent="KPOi8cj2wzjZKRKIcYXq-29">
          <mxGeometry x="-0.1507" relative="1" as="geometry">
            <mxPoint as="offset" />
          </mxGeometry>
        </mxCell>
        <mxCell id="KPOi8cj2wzjZKRKIcYXq-30" style="edgeStyle=orthogonalEdgeStyle;rounded=0;orthogonalLoop=1;jettySize=auto;html=1;exitX=1;exitY=1;exitDx=0;exitDy=0;entryX=0;entryY=0.5;entryDx=0;entryDy=0;" edge="1" parent="1" source="KPOi8cj2wzjZKRKIcYXq-11" target="KPOi8cj2wzjZKRKIcYXq-13">
          <mxGeometry relative="1" as="geometry" />
        </mxCell>
        <mxCell id="KPOi8cj2wzjZKRKIcYXq-37" value="Select Authors List" style="edgeLabel;html=1;align=center;verticalAlign=middle;resizable=0;points=[];" vertex="1" connectable="0" parent="KPOi8cj2wzjZKRKIcYXq-30">
          <mxGeometry x="-0.1058" relative="1" as="geometry">
            <mxPoint as="offset" />
          </mxGeometry>
        </mxCell>
        <mxCell id="KPOi8cj2wzjZKRKIcYXq-31" style="edgeStyle=orthogonalEdgeStyle;rounded=0;orthogonalLoop=1;jettySize=auto;html=1;exitX=0.5;exitY=1;exitDx=0;exitDy=0;entryX=0;entryY=0.5;entryDx=0;entryDy=0;" edge="1" parent="1" source="KPOi8cj2wzjZKRKIcYXq-11" target="KPOi8cj2wzjZKRKIcYXq-14">
          <mxGeometry relative="1" as="geometry" />
        </mxCell>
        <mxCell id="KPOi8cj2wzjZKRKIcYXq-38" value="Select Books Sold" style="edgeLabel;html=1;align=center;verticalAlign=middle;resizable=0;points=[];" vertex="1" connectable="0" parent="KPOi8cj2wzjZKRKIcYXq-31">
          <mxGeometry x="-0.2237" y="2" relative="1" as="geometry">
            <mxPoint as="offset" />
          </mxGeometry>
        </mxCell>
        <mxCell id="KPOi8cj2wzjZKRKIcYXq-11" value="Home&lt;span style=&quot;color: rgba(0, 0, 0, 0); font-family: monospace; font-size: 0px; text-align: start; text-wrap-mode: nowrap;&quot;&gt;%3CmxGraphModel%3E%3Croot%3E%3CmxCell%20id%3D%220%22%2F%3E%3CmxCell%20id%3D%221%22%20parent%3D%220%22%2F%3E%3CmxCell%20id%3D%222%22%20value%3D%22%22%20style%3D%22ellipse%3BwhiteSpace%3Dwrap%3Bhtml%3D1%3Baspect%3Dfixed%3B%22%20vertex%3D%221%22%20parent%3D%221%22%3E%3CmxGeometry%20x%3D%22250%22%20y%3D%22110%22%20width%3D%2260%22%20height%3D%2260%22%20as%3D%22geometry%22%2F%3E%3C%2FmxCell%3E%3C%2Froot%3E%3C%2FmxGraphModel%3E&lt;/span&gt;" style="ellipse;whiteSpace=wrap;html=1;aspect=fixed;" vertex="1" parent="1">
          <mxGeometry x="245" y="420" width="60" height="60" as="geometry" />
        </mxCell>
        <mxCell id="KPOi8cj2wzjZKRKIcYXq-12" value="Books" style="ellipse;whiteSpace=wrap;html=1;aspect=fixed;" vertex="1" parent="1">
          <mxGeometry x="410" y="360" width="60" height="60" as="geometry" />
        </mxCell>
        <mxCell id="KPOi8cj2wzjZKRKIcYXq-13" value="Authors" style="ellipse;whiteSpace=wrap;html=1;aspect=fixed;" vertex="1" parent="1">
          <mxGeometry x="410" y="480" width="60" height="60" as="geometry" />
        </mxCell>
        <mxCell id="KPOi8cj2wzjZKRKIcYXq-14" value="Orders" style="ellipse;whiteSpace=wrap;html=1;aspect=fixed;" vertex="1" parent="1">
          <mxGeometry x="350" y="580" width="60" height="60" as="geometry" />
        </mxCell>
        <mxCell id="KPOi8cj2wzjZKRKIcYXq-17" style="edgeStyle=orthogonalEdgeStyle;rounded=0;orthogonalLoop=1;jettySize=auto;html=1;exitX=1;exitY=0.5;exitDx=0;exitDy=0;entryX=0;entryY=0.5;entryDx=0;entryDy=0;" edge="1" parent="1" source="KPOi8cj2wzjZKRKIcYXq-15" target="KPOi8cj2wzjZKRKIcYXq-4">
          <mxGeometry relative="1" as="geometry" />
        </mxCell>
        <mxCell id="KPOi8cj2wzjZKRKIcYXq-19" value="Successful Login" style="edgeLabel;html=1;align=center;verticalAlign=middle;resizable=0;points=[];" vertex="1" connectable="0" parent="KPOi8cj2wzjZKRKIcYXq-17">
          <mxGeometry x="-0.1422" y="3" relative="1" as="geometry">
            <mxPoint as="offset" />
          </mxGeometry>
        </mxCell>
        <mxCell id="KPOi8cj2wzjZKRKIcYXq-15" value="Login to system" style="rounded=1;whiteSpace=wrap;html=1;" vertex="1" parent="1">
          <mxGeometry x="30" y="160" width="100" height="40" as="geometry" />
        </mxCell>
        <mxCell id="KPOi8cj2wzjZKRKIcYXq-28" style="edgeStyle=orthogonalEdgeStyle;rounded=0;orthogonalLoop=1;jettySize=auto;html=1;exitX=0.5;exitY=1;exitDx=0;exitDy=0;" edge="1" parent="1" source="KPOi8cj2wzjZKRKIcYXq-4" target="KPOi8cj2wzjZKRKIcYXq-11">
          <mxGeometry relative="1" as="geometry">
            <mxPoint x="275" y="400" as="targetPoint" />
          </mxGeometry>
        </mxCell>
        <mxCell id="KPOi8cj2wzjZKRKIcYXq-35" value="Select Home (default)" style="edgeLabel;html=1;align=center;verticalAlign=middle;resizable=0;points=[];" vertex="1" connectable="0" parent="KPOi8cj2wzjZKRKIcYXq-28">
          <mxGeometry x="-0.1468" y="-3" relative="1" as="geometry">
            <mxPoint as="offset" />
          </mxGeometry>
        </mxCell>
      </root>
    </mxGraphModel>
  </diagram>
</mxfile>
